<svg class="rich-terminal" viewBox="0 0 1385 879.5999999999999" xmlns="http://www.w3.org/2000/svg">
    <!-- Generated with Rich https://www.textualize.io -->
    <style>

    @font-face {
        font-family: "Fira Code";
        src: local("FiraCode-Regular"),
                url("https://cdnjs.cloudflare.com/ajax/libs/firacode/6.2.0/woff2/FiraCode-Regular.woff2") format("woff2"),
                url("https://cdnjs.cloudflare.com/ajax/libs/firacode/6.2.0/woff/FiraCode-Regular.woff") format("woff");
        font-style: normal;
        font-weight: 400;
    }
    @font-face {
        font-family: "Fira Code";
        src: local("FiraCode-Bold"),
                url("https://cdnjs.cloudflare.com/ajax/libs/firacode/6.2.0/woff2/FiraCode-Bold.woff2") format("woff2"),
                url("https://cdnjs.cloudflare.com/ajax/libs/firacode/6.2.0/woff/FiraCode-Bold.woff") format("woff");
        font-style: bold;
        font-weight: 700;
    }

    .terminal-2364587398-matrix {
        font-family: Fira Code, monospace;
        font-size: 20px;
        line-height: 24.4px;
        font-variant-east-asian: full-width;
    }

    .terminal-2364587398-title {
        font-size: 18px;
        font-weight: bold;
        font-family: arial;
    }

    .terminal-2364587398-r1 { fill: #c5c8c6 }
.terminal-2364587398-r2 { fill: #e0e0e0 }
.terminal-2364587398-r3 { fill: #a0a3a6 }
.terminal-2364587398-r4 { fill: #c5c6c7 }
.terminal-2364587398-r5 { fill: #ddedf9;font-weight: bold }
.terminal-2364587398-r6 { fill: #7f7f7f }
.terminal-2364587398-r7 { fill: #585858 }
.terminal-2364587398-r8 { fill: #0178d4 }
.terminal-2364587398-r9 { fill: #0178d4;font-weight: bold }
.terminal-2364587398-r10 { fill: #e0e0e0;font-weight: bold }
.terminal-2364587398-r11 { fill: #ffb454;font-weight: bold }
.terminal-2364587398-r12 { fill: #008000 }
.terminal-2364587398-r13 { fill: #ff0000 }
.terminal-2364587398-r14 { fill: #7aa2f7;font-weight: bold }
.terminal-2364587398-r15 { fill: #004578 }
.terminal-2364587398-r16 { fill: #a5a5a5 }
.terminal-2364587398-r17 { fill: #1e1e1e }
.terminal-2364587398-r18 { fill: #b93c5b }
.terminal-2364587398-r19 { fill: #6db2ff }
.terminal-2364587398-r20 { fill: #e76580 }
.terminal-2364587398-r21 { fill: #2d2d2d }
.terminal-2364587398-r22 { fill: #f5e5e9;font-weight: bold }
.terminal-2364587398-r23 { fill: #004295 }
.terminal-2364587398-r24 { fill: #780028 }
.terminal-2364587398-r25 { fill: #0d0d0d }
.terminal-2364587398-r26 { fill: #242f38 }
.terminal-2364587398-r27 { fill: #58d1eb;font-weight: bold }
.terminal-2364587398-r28 { fill: #98e024 }
.terminal-2364587398-r29 { fill: #fd971f }
.terminal-2364587398-r30 { fill: #ffa62b;font-weight: bold }
.terminal-2364587398-r31 { fill: #495259 }
    </style>

    <defs>
    <clipPath id="terminal-2364587398-clip-terminal">
      <rect x="0" y="0" width="1365.3999999999999" height="828.5999999999999" />
    </clipPath>
    <clipPath id="terminal-2364587398-line-0">
    <rect x="0" y="1.5" width="1366.4" height="24.65"/>
            </clipPath>
<clipPath id="terminal-2364587398-line-1">
    <rect x="0" y="25.9" width="1366.4" height="24.65"/>
            </clipPath>
<clipPath id="terminal-2364587398-line-2">
    <rect x="0" y="50.3" width="1366.4" height="24.65"/>
            </clipPath>
<clipPath id="terminal-2364587398-line-3">
    <rect x="0" y="74.7" width="1366.4" height="24.65"/>
            </clipPath>
<clipPath id="terminal-2364587398-line-4">
    <rect x="0" y="99.1" width="1366.4" height="24.65"/>
            </clipPath>
<clipPath id="terminal-2364587398-line-5">
    <rect x="0" y="123.5" width="1366.4" height="24.65"/>
            </clipPath>
<clipPath id="terminal-2364587398-line-6">
    <rect x="0" y="147.9" width="1366.4" height="24.65"/>
            </clipPath>
<clipPath id="terminal-2364587398-line-7">
    <rect x="0" y="172.3" width="1366.4" height="24.65"/>
            </clipPath>
<clipPath id="terminal-2364587398-line-8">
    <rect x="0" y="196.7" width="1366.4" height="24.65"/>
            </clipPath>
<clipPath id="terminal-2364587398-line-9">
    <rect x="0" y="221.1" width="1366.4" height="24.65"/>
            </clipPath>
<clipPath id="terminal-2364587398-line-10">
    <rect x="0" y="245.5" width="1366.4" height="24.65"/>
            </clipPath>
<clipPath id="terminal-2364587398-line-11">
    <rect x="0" y="269.9" width="1366.4" height="24.65"/>
            </clipPath>
<clipPath id="terminal-2364587398-line-12">
    <rect x="0" y="294.3" width="1366.4" height="24.65"/>
            </clipPath>
<clipPath id="terminal-2364587398-line-13">
    <rect x="0" y="318.7" width="1366.4" height="24.65"/>
            </clipPath>
<clipPath id="terminal-2364587398-line-14">
    <rect x="0" y="343.1" width="1366.4" height="24.65"/>
            </clipPath>
<clipPath id="terminal-2364587398-line-15">
    <rect x="0" y="367.5" width="1366.4" height="24.65"/>
            </clipPath>
<clipPath id="terminal-2364587398-line-16">
    <rect x="0" y="391.9" width="1366.4" height="24.65"/>
            </clipPath>
<clipPath id="terminal-2364587398-line-17">
    <rect x="0" y="416.3" width="1366.4" height="24.65"/>
            </clipPath>
<clipPath id="terminal-2364587398-line-18">
    <rect x="0" y="440.7" width="1366.4" height="24.65"/>
            </clipPath>
<clipPath id="terminal-2364587398-line-19">
    <rect x="0" y="465.1" width="1366.4" height="24.65"/>
            </clipPath>
<clipPath id="terminal-2364587398-line-20">
    <rect x="0" y="489.5" width="1366.4" height="24.65"/>
            </clipPath>
<clipPath id="terminal-2364587398-line-21">
    <rect x="0" y="513.9" width="1366.4" height="24.65"/>
            </clipPath>
<clipPath id="terminal-2364587398-line-22">
    <rect x="0" y="538.3" width="1366.4" height="24.65"/>
            </clipPath>
<clipPath id="terminal-2364587398-line-23">
    <rect x="0" y="562.7" width="1366.4" height="24.65"/>
            </clipPath>
<clipPath id="terminal-2364587398-line-24">
    <rect x="0" y="587.1" width="1366.4" height="24.65"/>
            </clipPath>
<clipPath id="terminal-2364587398-line-25">
    <rect x="0" y="611.5" width="1366.4" height="24.65"/>
            </clipPath>
<clipPath id="terminal-2364587398-line-26">
    <rect x="0" y="635.9" width="1366.4" height="24.65"/>
            </clipPath>
<clipPath id="terminal-2364587398-line-27">
    <rect x="0" y="660.3" width="1366.4" height="24.65"/>
            </clipPath>
<clipPath id="terminal-2364587398-line-28">
    <rect x="0" y="684.7" width="1366.4" height="24.65"/>
            </clipPath>
<clipPath id="terminal-2364587398-line-29">
    <rect x="0" y="709.1" width="1366.4" height="24.65"/>
            </clipPath>
<clipPath id="terminal-2364587398-line-30">
    <rect x="0" y="733.5" width="1366.4" height="24.65"/>
            </clipPath>
<clipPath id="terminal-2364587398-line-31">
    <rect x="0" y="757.9" width="1366.4" height="24.65"/>
            </clipPath>
<clipPath id="terminal-2364587398-line-32">
    <rect x="0" y="782.3" width="1366.4" height="24.65"/>
            </clipPath>
    </defs>

    <rect fill="#292929" stroke="rgba(255,255,255,0.35)" stroke-width="1" x="1" y="1" width="1383" height="877.6" rx="8"/><text class="terminal-2364587398-title" fill="#c5c8c6" text-anchor="middle" x="691" y="27">FlowJob&#160;Cockpit&#160;—&#160;dashboard</text>
            <g transform="translate(26,22)">
            <circle cx="0" cy="0" r="7" fill="#ff5f57"/>
            <circle cx="22" cy="0" r="7" fill="#febc2e"/>
            <circle cx="44" cy="0" r="7" fill="#28c840"/>
            </g>
        
    <g transform="translate(9, 41)" clip-path="url(#terminal-2364587398-clip-terminal)">
    <rect fill="#242f38" x="0" y="1.5" width="12.2" height="24.65" shape-rendering="crispEdges"/><rect fill="#242f38" x="12.2" y="1.5" width="12.2" height="24.65" shape-rendering="crispEdges"/><rect fill="#242f38" x="24.4" y="1.5" width="61" height="24.65" shape-rendering="crispEdges"/><rect fill="#242f38" x="85.4" y="1.5" width="12.2" height="24.65" shape-rendering="crispEdges"/><rect fill="#242f38" x="97.6" y="1.5" width="244" height="24.65" shape-rendering="crispEdges"/><rect fill="#242f38" x="341.6" y="1.5" width="183" height="24.65" shape-rendering="crispEdges"/><rect fill="#242f38" x="524.6" y="1.5" width="36.6" height="24.65" shape-rendering="crispEdges"/><rect fill="#242f38" x="561.2" y="1.5" width="439.2" height="24.65" shape-rendering="crispEdges"/><rect fill="#242f38" x="1000.4" y="1.5" width="244" height="24.65" shape-rendering="crispEdges"/><rect fill="#2c363f" x="1244.4" y="1.5" width="12.2" height="24.65" shape-rendering="crispEdges"/><rect fill="#2c363f" x="1256.6" y="1.5" width="97.6" height="24.65" shape-rendering="crispEdges"/><rect fill="#2c363f" x="1354.2" y="1.5" width="12.2" height="24.65" shape-rendering="crispEdges"/><rect fill="#0178d4" x="0" y="25.9" width="12.2" height="24.65" shape-rendering="crispEdges"/><rect fill="#0178d4" x="12.2" y="25.9" width="109.8" height="24.65" shape-rendering="crispEdges"/><rect fill="#0178d4" x="122" y="25.9" width="12.2" height="24.65" shape-rendering="crispEdges"/><rect fill="#1e1e1e" x="134.2" y="25.9" width="12.2" height="24.65" shape-rendering="crispEdges"/><rect fill="#1e1e1e" x="146.4" y="25.9" width="48.8" height="24.65" shape-rendering="crispEdges"/><rect fill="#1e1e1e" x="195.2" y="25.9" width="12.2" height="24.65" shape-rendering="crispEdges"/><rect fill="#1e1e1e" x="207.4" y="25.9" width="12.2" height="24.65" shape-rendering="crispEdges"/><rect fill="#1e1e1e" x="219.6" y="25.9" width="97.6" height="24.65" shape-rendering="crispEdges"/><rect fill="#1e1e1e" x="317.2" y="25.9" width="12.2" height="24.65" shape-rendering="crispEdges"/><rect fill="#1e1e1e" x="329.4" y="25.9" width="12.2" height="24.65" shape-rendering="crispEdges"/><rect fill="#1e1e1e" x="341.6" y="25.9" width="97.6" height="24.65" shape-rendering="crispEdges"/><rect fill="#1e1e1e" x="439.2" y="25.9" width="12.2" height="24.65" shape-rendering="crispEdges"/><rect fill="#1e1e1e" x="451.4" y="25.9" width="12.2" height="24.65" shape-rendering="crispEdges"/><rect fill="#1e1e1e" x="463.6" y="25.9" width="48.8" height="24.65" shape-rendering="crispEdges"/><rect fill="#1e1e1e" x="512.4" y="25.9" width="12.2" height="24.65" shape-rendering="crispEdges"/><rect fill="#1e1e1e" x="524.6" y="25.9" width="841.8" height="24.65" shape-rendering="crispEdges"/><rect fill="#1e1e1e" x="0" y="50.3" width="12.2" height="24.65" shape-rendering="crispEdges"/><rect fill="#1e1e1e" x="12.2" y="50.3" width="109.8" height="24.65" shape-rendering="crispEdges"/><rect fill="#1e1e1e" x="122" y="50.3" width="12.2" height="24.65" shape-rendering="crispEdges"/><rect fill="#1e1e1e" x="134.2" y="50.3" width="1232.2" height="24.65" shape-rendering="crispEdges"/><rect fill="#1e1e1e" x="0" y="74.7" width="512.4" height="24.65" shape-rendering="crispEdges"/><rect fill="#1e1e1e" x="512.4" y="74.7" width="854" height="24.65" shape-rendering="crispEdges"/><rect fill="#1e1e1e" x="0" y="99.1" width="524.6" height="24.65" shape-rendering="crispEdges"/><rect fill="#1e1e1e" x="524.6" y="99.1" width="841.8" height="24.65" shape-rendering="crispEdges"/><rect fill="#1e1e1e" x="0" y="123.5" width="524.6" height="24.65" shape-rendering="crispEdges"/><rect fill="#1e1e1e" x="524.6" y="123.5" width="841.8" height="24.65" shape-rendering="crispEdges"/><rect fill="#1e1e1e" x="0" y="147.9" width="536.8" height="24.65" shape-rendering="crispEdges"/><rect fill="#1e1e1e" x="536.8" y="147.9" width="829.6" height="24.65" shape-rendering="crispEdges"/><rect fill="#1e1e1e" x="0" y="172.3" width="524.6" height="24.65" shape-rendering="crispEdges"/><rect fill="#1e1e1e" x="524.6" y="172.3" width="841.8" height="24.65" shape-rendering="crispEdges"/><rect fill="#1e1e1e" x="0" y="196.7" width="134.2" height="24.65" shape-rendering="crispEdges"/><rect fill="#1e1e1e" x="134.2" y="196.7" width="61" height="24.65" shape-rendering="crispEdges"/><rect fill="#1e1e1e" x="195.2" y="196.7" width="134.2" height="24.65" shape-rendering="crispEdges"/><rect fill="#1e1e1e" x="329.4" y="196.7" width="109.8" height="24.65" shape-rendering="crispEdges"/><rect fill="#1e1e1e" x="439.2" y="196.7" width="122" height="24.65" shape-rendering="crispEdges"/><rect fill="#1e1e1e" x="561.2" y="196.7" width="549" height="24.65" shape-rendering="crispEdges"/><rect fill="#1e1e1e" x="1110.2" y="196.7" width="256.2" height="24.65" shape-rendering="crispEdges"/><rect fill="#1e1e1e" x="0" y="221.1" width="73.2" height="24.65" shape-rendering="crispEdges"/><rect fill="#1e1e1e" x="73.2" y="221.1" width="36.6" height="24.65" shape-rendering="crispEdges"/><rect fill="#1e1e1e" x="109.8" y="221.1" width="134.2" height="24.65" shape-rendering="crispEdges"/><rect fill="#1e1e1e" x="244" y="221.1" width="36.6" height="24.65" shape-rendering="crispEdges"/><rect fill="#1e1e1e" x="280.6" y="221.1" width="122" height="24.65" shape-rendering="crispEdges"/><rect fill="#1e1e1e" x="402.6" y="221.1" width="36.6" height="24.65" shape-rendering="crispEdges"/><rect fill="#1e1e1e" x="439.2" y="221.1" width="122" height="24.65" shape-rendering="crispEdges"/><rect fill="#1e1e1e" x="561.2" y="221.1" width="36.6" height="24.65" shape-rendering="crispEdges"/><rect fill="#1e1e1e" x="597.8" y="221.1" width="109.8" height="24.65" shape-rendering="crispEdges"/><rect fill="#1e1e1e" x="707.6" y="221.1" width="36.6" height="24.65" shape-rendering="crispEdges"/><rect fill="#1e1e1e" x="744.2" y="221.1" width="231.8" height="24.65" shape-rendering="crispEdges"/><rect fill="#1e1e1e" x="976" y="221.1" width="36.6" height="24.65" shape-rendering="crispEdges"/><rect fill="#1e1e1e" x="1012.6" y="221.1" width="122" height="24.65" shape-rendering="crispEdges"/><rect fill="#1e1e1e" x="1134.6" y="221.1" width="36.6" height="24.65" shape-rendering="crispEdges"/><rect fill="#1e1e1e" x="1171.2" y="221.1" width="109.8" height="24.65" shape-rendering="crispEdges"/><rect fill="#1e1e1e" x="1281" y="221.1" width="85.4" height="24.65" shape-rendering="crispEdges"/><rect fill="#1e1e1e" x="0" y="245.5" width="170.8" height="24.65" shape-rendering="crispEdges"/><rect fill="#1e1e1e" x="170.8" y="245.5" width="36.6" height="24.65" shape-rendering="crispEdges"/><rect fill="#1e1e1e" x="207.4" y="245.5" width="146.4" height="24.65" shape-rendering="crispEdges"/><rect fill="#1e1e1e" x="353.8" y="245.5" width="36.6" height="24.65" shape-rendering="crispEdges"/><rect fill="#1e1e1e" x="390.4" y="245.5" width="134.2" height="24.65" shape-rendering="crispEdges"/><rect fill="#1e1e1e" x="524.6" y="245.5" width="36.6" height="24.65" shape-rendering="crispEdges"/><rect fill="#1e1e1e" x="561.2" y="245.5" width="207.4" height="24.65" shape-rendering="crispEdges"/><rect fill="#1e1e1e" x="768.6" y="245.5" width="36.6" height="24.65" shape-rendering="crispEdges"/><rect fill="#1e1e1e" x="805.2" y="245.5" width="146.4" height="24.65" shape-rendering="crispEdges"/><rect fill="#1e1e1e" x="951.6" y="245.5" width="414.8" height="24.65" shape-rendering="crispEdges"/><rect fill="#1e1e1e" x="0" y="269.9" width="1366.4" height="24.65" shape-rendering="crispEdges"/><rect fill="#1e1e1e" x="0" y="294.3" width="1366.4" height="24.65" shape-rendering="crispEdges"/><rect fill="#1e1e1e" x="0" y="318.7" width="1366.4" height="24.65" shape-rendering="crispEdges"/><rect fill="#1e1e1e" x="0" y="343.1" width="61" height="24.65" shape-rendering="crispEdges"/><rect fill="#1e1e1e" x="61" y="343.1" width="1305.4" height="24.65" shape-rendering="crispEdges"/><rect fill="#1e1e1e" x="0" y="367.5" width="0" height="24.65" shape-rendering="crispEdges"/><rect fill="#1e1e1e" x="0" y="367.5" width="1366.4" height="24.65" shape-rendering="crispEdges"/><rect fill="#1e1e1e" x="0" y="391.9" width="207.4" height="24.65" shape-rendering="crispEdges"/><rect fill="#1e1e1e" x="207.4" y="391.9" width="97.6" height="24.65" shape-rendering="crispEdges"/><rect fill="#1e1e1e" x="305" y="391.9" width="12.2" height="24.65" shape-rendering="crispEdges"/><rect fill="#1e1e1e" x="317.2" y="391.9" width="73.2" height="24.65" shape-rendering="crispEdges"/><rect fill="#1e1e1e" x="390.4" y="391.9" width="24.4" height="24.65" shape-rendering="crispEdges"/><rect fill="#1e1e1e" x="414.8" y="391.9" width="36.6" height="24.65" shape-rendering="crispEdges"/><rect fill="#1e1e1e" x="451.4" y="391.9" width="915" height="24.65" shape-rendering="crispEdges"/><rect fill="#1e1e1e" x="0" y="416.3" width="1366.4" height="24.65" shape-rendering="crispEdges"/><rect fill="#0178d4" x="0" y="440.7" width="195.2" height="24.65" shape-rendering="crispEdges"/><rect fill="#b93c5b" x="195.2" y="440.7" width="195.2" height="24.65" shape-rendering="crispEdges"/><rect fill="#1e1e1e" x="390.4" y="440.7" width="195.2" height="24.65" shape-rendering="crispEdges"/><rect fill="#1e1e1e" x="585.6" y="440.7" width="780.8" height="24.65" shape-rendering="crispEdges"/><rect fill="#0178d4" x="0" y="465.1" width="48.8" height="24.65" shape-rendering="crispEdges"/><rect fill="#0178d4" x="48.8" y="465.1" width="85.4" height="24.65" shape-rendering="crispEdges"/><rect fill="#0178d4" x="134.2" y="465.1" width="61" height="24.65" shape-rendering="crispEdges"/><rect fill="#b93c5b" x="195.2" y="465.1" width="61" height="24.65" shape-rendering="crispEdges"/><rect fill="#b93c5b" x="256.2" y="465.1" width="73.2" height="24.65" shape-rendering="crispEdges"/><rect fill="#b93c5b" x="329.4" y="465.1" width="61" height="24.65" shape-rendering="crispEdges"/><rect fill="#1e1e1e" x="390.4" y="465.1" width="36.6" height="24.65" shape-rendering="crispEdges"/><rect fill="#1e1e1e" x="427" y="465.1" width="109.8" height="24.65" shape-rendering="crispEdges"/><rect fill="#1e1e1e" x="536.8" y="465.1" width="48.8" height="24.65" shape-rendering="crispEdges"/><rect fill="#1e1e1e" x="585.6" y="465.1" width="780.8" height="24.65" shape-rendering="crispEdges"/><rect fill="#0178d4" x="0" y="489.5" width="195.2" height="24.65" shape-rendering="crispEdges"/><rect fill="#b93c5b" x="195.2" y="489.5" width="195.2" height="24.65" shape-rendering="crispEdges"/><rect fill="#1e1e1e" x="390.4" y="489.5" width="195.2" height="24.65" shape-rendering="crispEdges"/><rect fill="#1e1e1e" x="585.6" y="489.5" width="780.8" height="24.65" shape-rendering="crispEdges"/><rect fill="#1e1e1e" x="0" y="513.9" width="1366.4" height="24.65" shape-rendering="crispEdges"/><rect fill="#1e1e1e" x="0" y="538.3" width="12.2" height="24.65" shape-rendering="crispEdges"/><rect fill="#1e1e1e" x="12.2" y="538.3" width="1342" height="24.65" shape-rendering="crispEdges"/><rect fill="#1e1e1e" x="1354.2" y="538.3" width="12.2" height="24.65" shape-rendering="crispEdges"/><rect fill="#1e1e1e" x="0" y="562.7" width="12.2" height="24.65" shape-rendering="crispEdges"/><rect fill="#1e1e1e" x="12.2" y="562.7" width="85.4" height="24.65" shape-rendering="crispEdges"/><rect fill="#1e1e1e" x="97.6" y="562.7" width="36.6" height="24.65" shape-rendering="crispEdges"/><rect fill="#1e1e1e" x="134.2" y="562.7" width="61" height="24.65" shape-rendering="crispEdges"/><rect fill="#1e1e1e" x="195.2" y="562.7" width="12.2" height="24.65" shape-rendering="crispEdges"/><rect fill="#1e1e1e" x="207.4" y="562.7" width="109.8" height="24.65" shape-rendering="crispEdges"/><rect fill="#1e1e1e" x="317.2" y="562.7" width="12.2" height="24.65" shape-rendering="crispEdges"/><rect fill="#1e1e1e" x="329.4" y="562.7" width="12.2" height="24.65" shape-rendering="crispEdges"/><rect fill="#1e1e1e" x="341.6" y="562.7" width="12.2" height="24.65" shape-rendering="crispEdges"/><rect fill="#1e1e1e" x="353.8" y="562.7" width="12.2" height="24.65" shape-rendering="crispEdges"/><rect fill="#1e1e1e" x="366" y="562.7" width="122" height="24.65" shape-rendering="crispEdges"/><rect fill="#1e1e1e" x="488" y="562.7" width="73.2" height="24.65" shape-rendering="crispEdges"/><rect fill="#1e1e1e" x="561.2" y="562.7" width="12.2" height="24.65" shape-rendering="crispEdges"/><rect fill="#1e1e1e" x="573.4" y="562.7" width="12.2" height="24.65" shape-rendering="crispEdges"/><rect fill="#1e1e1e" x="585.6" y="562.7" width="12.2" height="24.65" shape-rendering="crispEdges"/><rect fill="#1e1e1e" x="597.8" y="562.7" width="73.2" height="24.65" shape-rendering="crispEdges"/><rect fill="#1e1e1e" x="671" y="562.7" width="12.2" height="24.65" shape-rendering="crispEdges"/><rect fill="#1e1e1e" x="683.2" y="562.7" width="646.6" height="24.65" shape-rendering="crispEdges"/><rect fill="#000000" x="1329.8" y="562.7" width="24.4" height="24.65" shape-rendering="crispEdges"/><rect fill="#1e1e1e" x="1354.2" y="562.7" width="12.2" height="24.65" shape-rendering="crispEdges"/><rect fill="#1e1e1e" x="0" y="587.1" width="12.2" height="24.65" shape-rendering="crispEdges"/><rect fill="#1e1e1e" x="12.2" y="587.1" width="12.2" height="24.65" shape-rendering="crispEdges"/><rect fill="#1e1e1e" x="24.4" y="587.1" width="122" height="24.65" shape-rendering="crispEdges"/><rect fill="#1e1e1e" x="146.4" y="587.1" width="12.2" height="24.65" shape-rendering="crispEdges"/><rect fill="#1e1e1e" x="158.6" y="587.1" width="85.4" height="24.65" shape-rendering="crispEdges"/><rect fill="#1e1e1e" x="244" y="587.1" width="244" height="24.65" shape-rendering="crispEdges"/><rect fill="#1e1e1e" x="488" y="587.1" width="231.8" height="24.65" shape-rendering="crispEdges"/><rect fill="#1e1e1e" x="719.8" y="587.1" width="36.6" height="24.65" shape-rendering="crispEdges"/><rect fill="#1e1e1e" x="756.4" y="587.1" width="573.4" height="24.65" shape-rendering="crispEdges"/><rect fill="#000000" x="1329.8" y="587.1" width="24.4" height="24.65" shape-rendering="crispEdges"/><rect fill="#1e1e1e" x="1354.2" y="587.1" width="12.2" height="24.65" shape-rendering="crispEdges"/><rect fill="#1e1e1e" x="0" y="611.5" width="12.2" height="24.65" shape-rendering="crispEdges"/><rect fill="#1e1e1e" x="12.2" y="611.5" width="12.2" height="24.65" shape-rendering="crispEdges"/><rect fill="#1e1e1e" x="24.4" y="611.5" width="122" height="24.65" shape-rendering="crispEdges"/><rect fill="#1e1e1e" x="146.4" y="611.5" width="12.2" height="24.65" shape-rendering="crispEdges"/><rect fill="#1e1e1e" x="158.6" y="611.5" width="439.2" height="24.65" shape-rendering="crispEdges"/><rect fill="#1e1e1e" x="597.8" y="611.5" width="732" height="24.65" shape-rendering="crispEdges"/><rect fill="#000000" x="1329.8" y="611.5" width="24.4" height="24.65" shape-rendering="crispEdges"/><rect fill="#1e1e1e" x="1354.2" y="611.5" width="12.2" height="24.65" shape-rendering="crispEdges"/><rect fill="#1e1e1e" x="0" y="635.9" width="12.2" height="24.65" shape-rendering="crispEdges"/><rect fill="#1e1e1e" x="12.2" y="635.9" width="1317.6" height="24.65" shape-rendering="crispEdges"/><rect fill="#000000" x="1329.8" y="635.9" width="24.4" height="24.65" shape-rendering="crispEdges"/><rect fill="#1e1e1e" x="1354.2" y="635.9" width="12.2" height="24.65" shape-rendering="crispEdges"/><rect fill="#1e1e1e" x="0" y="660.3" width="12.2" height="24.65" shape-rendering="crispEdges"/><rect fill="#1e1e1e" x="12.2" y="660.3" width="1317.6" height="24.65" shape-rendering="crispEdges"/><rect fill="#000000" x="1329.8" y="660.3" width="24.4" height="24.65" shape-rendering="crispEdges"/><rect fill="#1e1e1e" x="1354.2" y="660.3" width="12.2" height="24.65" shape-rendering="crispEdges"/><rect fill="#1e1e1e" x="0" y="684.7" width="12.2" height="24.65" shape-rendering="crispEdges"/><rect fill="#1e1e1e" x="12.2" y="684.7" width="1317.6" height="24.65" shape-rendering="crispEdges"/><rect fill="#000000" x="1329.8" y="684.7" width="24.4" height="24.65" shape-rendering="crispEdges"/><rect fill="#1e1e1e" x="1354.2" y="684.7" width="12.2" height="24.65" shape-rendering="crispEdges"/><rect fill="#1e1e1e" x="0" y="709.1" width="12.2" height="24.65" shape-rendering="crispEdges"/><rect fill="#1e1e1e" x="12.2" y="709.1" width="1317.6" height="24.65" shape-rendering="crispEdges"/><rect fill="#000000" x="1329.8" y="709.1" width="24.4" height="24.65" shape-rendering="crispEdges"/><rect fill="#1e1e1e" x="1354.2" y="709.1" width="12.2" height="24.65" shape-rendering="crispEdges"/><rect fill="#1e1e1e" x="0" y="733.5" width="12.2" height="24.65" shape-rendering="crispEdges"/><rect fill="#1e1e1e" x="12.2" y="733.5" width="1317.6" height="24.65" shape-rendering="crispEdges"/><rect fill="#000000" x="1329.8" y="733.5" width="24.4" height="24.65" shape-rendering="crispEdges"/><rect fill="#1e1e1e" x="1354.2" y="733.5" width="12.2" height="24.65" shape-rendering="crispEdges"/><rect fill="#1e1e1e" x="0" y="757.9" width="12.2" height="24.65" shape-rendering="crispEdges"/><rect fill="#1e1e1e" x="12.2" y="757.9" width="1317.6" height="24.65" shape-rendering="crispEdges"/><rect fill="#000000" x="1329.8" y="757.9" width="24.4" height="24.65" shape-rendering="crispEdges"/><rect fill="#1e1e1e" x="1354.2" y="757.9" width="12.2" height="24.65" shape-rendering="crispEdges"/><rect fill="#1e1e1e" x="0" y="782.3" width="12.2" height="24.65" shape-rendering="crispEdges"/><rect fill="#1e1e1e" x="12.2" y="782.3" width="1342" height="24.65" shape-rendering="crispEdges"/><rect fill="#1e1e1e" x="1354.2" y="782.3" width="12.2" height="24.65" shape-rendering="crispEdges"/><rect fill="#242f38" x="0" y="806.7" width="36.6" height="24.65" shape-rendering="crispEdges"/><rect fill="#242f38" x="36.6" y="806.7" width="122" height="24.65" shape-rendering="crispEdges"/><rect fill="#242f38" x="158.6" y="806.7" width="36.6" height="24.65" shape-rendering="crispEdges"/><rect fill="#242f38" x="195.2" y="806.7" width="61" height="24.65" shape-rendering="crispEdges"/><rect fill="#242f38" x="256.2" y="806.7" width="36.6" height="24.65" shape-rendering="crispEdges"/><rect fill="#242f38" x="292.8" y="806.7" width="109.8" height="24.65" shape-rendering="crispEdges"/><rect fill="#242f38" x="402.6" y="806.7" width="36.6" height="24.65" shape-rendering="crispEdges"/><rect fill="#242f38" x="439.2" y="806.7" width="109.8" height="24.65" shape-rendering="crispEdges"/><rect fill="#242f38" x="549" y="806.7" width="36.6" height="24.65" shape-rendering="crispEdges"/><rect fill="#242f38" x="585.6" y="806.7" width="61" height="24.65" shape-rendering="crispEdges"/><rect fill="#242f38" x="646.6" y="806.7" width="573.4" height="24.65" shape-rendering="crispEdges"/><rect fill="#242f38" x="1220" y="806.7" width="12.2" height="24.65" shape-rendering="crispEdges"/><rect fill="#242f38" x="1232.2" y="806.7" width="24.4" height="24.65" shape-rendering="crispEdges"/><rect fill="#242f38" x="1256.6" y="806.7" width="97.6" height="24.65" shape-rendering="crispEdges"/><rect fill="#242f38" x="1354.2" y="806.7" width="12.2" height="24.65" shape-rendering="crispEdges"/>
    <g class="terminal-2364587398-matrix">
    <text class="terminal-2364587398-r2" x="12.2" y="20" textLength="12.2" clip-path="url(#terminal-2364587398-line-0)">⭘</text><text class="terminal-2364587398-r2" x="341.6" y="20" textLength="183" clip-path="url(#terminal-2364587398-line-0)">FlowJob&#160;Cockpit</text><text class="terminal-2364587398-r3" x="524.6" y="20" textLength="36.6" clip-path="url(#terminal-2364587398-line-0)">&#160;—&#160;</text><text class="terminal-2364587398-r3" x="561.2" y="20" textLength="439.2" clip-path="url(#terminal-2364587398-line-0)">the&#160;agentic&#160;job-application&#160;pipeline</text><text class="terminal-2364587398-r4" x="1256.6" y="20" textLength="97.6" clip-path="url(#terminal-2364587398-line-0)">20:29:18</text><text class="terminal-2364587398-r1" x="1366.4" y="20" textLength="12.2" clip-path="url(#terminal-2364587398-line-0)">
</text><text class="terminal-2364587398-r5" x="12.2" y="44.4" textLength="109.8" clip-path="url(#terminal-2364587398-line-1)">Dashboard</text><text class="terminal-2364587398-r6" x="146.4" y="44.4" textLength="48.8" clip-path="url(#terminal-2364587398-line-1)">Jobs</text><text class="terminal-2364587398-r6" x="219.6" y="44.4" textLength="97.6" clip-path="url(#terminal-2364587398-line-1)">LLM&#160;Logs</text><text class="terminal-2364587398-r6" x="341.6" y="44.4" textLength="97.6" clip-path="url(#terminal-2364587398-line-1)">Settings</text><text class="terminal-2364587398-r6" x="463.6" y="44.4" textLength="48.8" clip-path="url(#terminal-2364587398-line-1)">HITL</text><text class="terminal-2364587398-r1" x="1366.4" y="44.4" textLength="12.2" clip-path="url(#terminal-2364587398-line-1)">
</text><text class="terminal-2364587398-r7" x="0" y="68.8" textLength="12.2" clip-path="url(#terminal-2364587398-line-2)">╸</text><text class="terminal-2364587398-r8" x="12.2" y="68.8" textLength="109.8" clip-path="url(#terminal-2364587398-line-2)">━━━━━━━━━</text><text class="terminal-2364587398-r7" x="122" y="68.8" textLength="12.2" clip-path="url(#terminal-2364587398-line-2)">╺</text><text class="terminal-2364587398-r7" x="134.2" y="68.8" textLength="1232.2" clip-path="url(#terminal-2364587398-line-2)">━━━━━━━━━━━━━━━━━━━━━━━━━━━━━━━━━━━━━━━━━━━━━━━━━━━━━━━━━━━━━━━━━━━━━━━━━━━━━━━━━━━━━━━━━━━━━━━━━━━━━</text><text class="terminal-2364587398-r1" x="1366.4" y="68.8" textLength="12.2" clip-path="url(#terminal-2364587398-line-2)">
</text><text class="terminal-2364587398-r9" x="0" y="93.2" textLength="512.4" clip-path="url(#terminal-2364587398-line-3)">&#160;_____&#160;_&#160;&#160;&#160;&#160;&#160;_____&#160;&#160;&#160;&#160;&#160;&#160;&#160;&#160;__&#160;&#160;_&#160;&#160;___&#160;&#160;____</text><text class="terminal-2364587398-r1" x="1366.4" y="93.2" textLength="12.2" clip-path="url(#terminal-2364587398-line-3)">
</text><text class="terminal-2364587398-r9" x="0" y="117.6" textLength="524.6" clip-path="url(#terminal-2364587398-line-4)">|&#160;&#160;___|&#160;|&#160;&#160;&#160;/&#160;_&#160;\&#160;\&#160;&#160;&#160;&#160;&#160;&#160;/&#160;/&#160;|&#160;|/&#160;_&#160;\|&#160;__&#160;)</text><text class="terminal-2364587398-r1" x="1366.4" y="117.6" textLength="12.2" clip-path="url(#terminal-2364587398-line-4)">
</text><text class="terminal-2364587398-r9" x="0" y="142" textLength="524.6" clip-path="url(#terminal-2364587398-line-5)">|&#160;|_&#160;&#160;|&#160;|&#160;&#160;|&#160;|&#160;|&#160;\&#160;\&#160;/\&#160;/&#160;/&#160;&#160;|&#160;|&#160;|&#160;|&#160;|&#160;&#160;_&#160;\</text><text class="terminal-2364587398-r1" x="1366.4" y="142" textLength="12.2" clip-path="url(#terminal-2364587398-line-5)">
</text><text class="terminal-2364587398-r9" x="0" y="166.4" textLength="536.8" clip-path="url(#terminal-2364587398-line-6)">|&#160;&#160;_|&#160;|&#160;|__|&#160;|_|&#160;|\&#160;V&#160;&#160;V&#160;/&#160;|_|&#160;|&#160;|_|&#160;|&#160;|_)&#160;|</text><text class="terminal-2364587398-r1" x="1366.4" y="166.4" textLength="12.2" clip-path="url(#terminal-2364587398-line-6)">
</text><text class="terminal-2364587398-r9" x="0" y="190.8" textLength="524.6" clip-path="url(#terminal-2364587398-line-7)">|_|&#160;&#160;&#160;|_____\___/&#160;&#160;\_/\_/&#160;\___/&#160;\___/|____/</text><text class="terminal-2364587398-r1" x="1366.4" y="190.8" textLength="12.2" clip-path="url(#terminal-2364587398-line-7)">
</text><text class="terminal-2364587398-r10" x="0" y="215.2" textLength="134.2" clip-path="url(#terminal-2364587398-line-8)">Total&#160;jobs:</text><text class="terminal-2364587398-r2" x="134.2" y="215.2" textLength="61" clip-path="url(#terminal-2364587398-line-8)">&#160;8&#160;&#160;&#160;</text><text class="terminal-2364587398-r10" x="195.2" y="215.2" textLength="134.2" clip-path="url(#terminal-2364587398-line-8)">Last&#160;cycle:</text><text class="terminal-2364587398-r2" x="329.4" y="215.2" textLength="109.8" clip-path="url(#terminal-2364587398-line-8)">&#160;never&#160;&#160;&#160;</text><text class="terminal-2364587398-r10" x="439.2" y="215.2" textLength="122" clip-path="url(#terminal-2364587398-line-8)">LLM&#160;spend:</text><text class="terminal-2364587398-r2" x="561.2" y="215.2" textLength="549" clip-path="url(#terminal-2364587398-line-8)">&#160;$0.0046&#160;(6&#160;calls,&#160;11,425&#160;tokens,&#160;0&#160;failures)</text><text class="terminal-2364587398-r1" x="1366.4" y="215.2" textLength="12.2" clip-path="url(#terminal-2364587398-line-8)">
</text><text class="terminal-2364587398-r2" x="0" y="239.6" textLength="73.2" clip-path="url(#terminal-2364587398-line-9)">NEW:&#160;1</text><text class="terminal-2364587398-r2" x="109.8" y="239.6" textLength="134.2" clip-path="url(#terminal-2364587398-line-9)">ANALYZED:&#160;1</text><text class="terminal-2364587398-r2" x="280.6" y="239.6" textLength="122" clip-path="url(#terminal-2364587398-line-9)">SKIPPED:&#160;0</text><text class="terminal-2364587398-r2" x="439.2" y="239.6" textLength="122" clip-path="url(#terminal-2364587398-line-9)">DRAFTED:&#160;1</text><text class="terminal-2364587398-r2" x="597.8" y="239.6" textLength="109.8" clip-path="url(#terminal-2364587398-line-9)">EDITED:&#160;0</text><text class="terminal-2364587398-r11" x="744.2" y="239.6" textLength="231.8" clip-path="url(#terminal-2364587398-line-9)">PENDING_APPROVAL:&#160;1</text><text class="terminal-2364587398-r12" x="1012.6" y="239.6" textLength="122" clip-path="url(#terminal-2364587398-line-9)">APPLIED:&#160;1</text><text class="terminal-2364587398-r13" x="1171.2" y="239.6" textLength="109.8" clip-path="url(#terminal-2364587398-line-9)">FAILED:&#160;1</text><text class="terminal-2364587398-r1" x="1366.4" y="239.6" textLength="12.2" clip-path="url(#terminal-2364587398-line-9)">
</text><text class="terminal-2364587398-r13" x="0" y="264" textLength="170.8" clip-path="url(#terminal-2364587398-line-10)">TAILOR_FAIL:&#160;0</text><text class="terminal-2364587398-r13" x="207.4" y="264" textLength="146.4" clip-path="url(#terminal-2364587398-line-10)">EDIT_FAIL:&#160;0</text><text class="terminal-2364587398-r2" x="390.4" y="264" textLength="134.2" clip-path="url(#terminal-2364587398-line-10)">REJECTED:&#160;0</text><text class="terminal-2364587398-r14" x="561.2" y="264" textLength="207.4" clip-path="url(#terminal-2364587398-line-10)">NEEDS_EVIDENCE:&#160;1</text><text class="terminal-2364587398-r2" x="805.2" y="264" textLength="146.4" clip-path="url(#terminal-2364587398-line-10)">UNFIXABLE:&#160;1</text><text class="terminal-2364587398-r1" x="1366.4" y="264" textLength="12.2" clip-path="url(#terminal-2364587398-line-10)">
</text><text class="terminal-2364587398-r1" x="1366.4" y="288.4" textLength="12.2" clip-path="url(#terminal-2364587398-line-11)">
</text><text class="terminal-2364587398-r15" x="0" y="312.8" textLength="1366.4" clip-path="url(#terminal-2364587398-line-12)">────────────────────────────────────────────────────────────────────────────────────────────────────────────────</text><text class="terminal-2364587398-r1" x="1366.4" y="312.8" textLength="12.2" clip-path="url(#terminal-2364587398-line-12)">
</text><text class="terminal-2364587398-r1" x="1366.4" y="337.2" textLength="12.2" clip-path="url(#terminal-2364587398-line-13)">
</text><text class="terminal-2364587398-r2" x="0" y="361.6" textLength="61" clip-path="url(#terminal-2364587398-line-14)">Watch</text><text class="terminal-2364587398-r1" x="1366.4" y="361.6" textLength="12.2" clip-path="url(#terminal-2364587398-line-14)">
</text><text class="terminal-2364587398-r1" x="1366.4" y="386" textLength="12.2" clip-path="url(#terminal-2364587398-line-15)">
</text><text class="terminal-2364587398-r17" x="0" y="410.4" textLength="207.4" clip-path="url(#terminal-2364587398-line-16)">━━━━━━━━━━━━━━━━━</text><text class="terminal-2364587398-r18" x="207.4" y="410.4" textLength="97.6" clip-path="url(#terminal-2364587398-line-16)">╺━━━━━━━</text><text class="terminal-2364587398-r18" x="305" y="410.4" textLength="12.2" clip-path="url(#terminal-2364587398-line-16)">╸</text><text class="terminal-2364587398-r17" x="317.2" y="410.4" textLength="73.2" clip-path="url(#terminal-2364587398-line-16)">━━━━━━</text><text class="terminal-2364587398-r2" x="414.8" y="410.4" textLength="36.6" clip-path="url(#terminal-2364587398-line-16)">--%</text><text class="terminal-2364587398-r1" x="1366.4" y="410.4" textLength="12.2" clip-path="url(#terminal-2364587398-line-16)">
</text><text class="terminal-2364587398-r1" x="1366.4" y="434.8" textLength="12.2" clip-path="url(#terminal-2364587398-line-17)">
</text><text class="terminal-2364587398-r19" x="0" y="459.2" textLength="195.2" clip-path="url(#terminal-2364587398-line-18)">▔▔▔▔▔▔▔▔▔▔▔▔▔▔▔▔</text><text class="terminal-2364587398-r20" x="195.2" y="459.2" textLength="195.2" clip-path="url(#terminal-2364587398-line-18)">▔▔▔▔▔▔▔▔▔▔▔▔▔▔▔▔</text><text class="terminal-2364587398-r21" x="390.4" y="459.2" textLength="195.2" clip-path="url(#terminal-2364587398-line-18)">▔▔▔▔▔▔▔▔▔▔▔▔▔▔▔▔</text><text class="terminal-2364587398-r1" x="1366.4" y="459.2" textLength="12.2" clip-path="url(#terminal-2364587398-line-18)">
</text><text class="terminal-2364587398-r5" x="48.8" y="483.6" textLength="85.4" clip-path="url(#terminal-2364587398-line-19)">&#160;Start&#160;</text><text class="terminal-2364587398-r22" x="256.2" y="483.6" textLength="73.2" clip-path="url(#terminal-2364587398-line-19)">&#160;Stop&#160;</text><text class="terminal-2364587398-r10" x="427" y="483.6" textLength="109.8" clip-path="url(#terminal-2364587398-line-19)">&#160;Run&#160;now&#160;</text><text class="terminal-2364587398-r1" x="1366.4" y="483.6" textLength="12.2" clip-path="url(#terminal-2364587398-line-19)">
</text><text class="terminal-2364587398-r23" x="0" y="508" textLength="195.2" clip-path="url(#terminal-2364587398-line-20)">▁▁▁▁▁▁▁▁▁▁▁▁▁▁▁▁</text><text class="terminal-2364587398-r24" x="195.2" y="508" textLength="195.2" clip-path="url(#terminal-2364587398-line-20)">▁▁▁▁▁▁▁▁▁▁▁▁▁▁▁▁</text><text class="terminal-2364587398-r25" x="390.4" y="508" textLength="195.2" clip-path="url(#terminal-2364587398-line-20)">▁▁▁▁▁▁▁▁▁▁▁▁▁▁▁▁</text><text class="terminal-2364587398-r1" x="1366.4" y="508" textLength="12.2" clip-path="url(#terminal-2364587398-line-20)">
</text><text class="terminal-2364587398-r1" x="1366.4" y="532.4" textLength="12.2" clip-path="url(#terminal-2364587398-line-21)">
</text><text class="terminal-2364587398-r26" x="0" y="556.8" textLength="12.2" clip-path="url(#terminal-2364587398-line-22)">╭</text><text class="terminal-2364587398-r26" x="12.2" y="556.8" textLength="1342" clip-path="url(#terminal-2364587398-line-22)">──────────────────────────────────────────────────────────────────────────────────────────────────────────────</text><text class="terminal-2364587398-r26" x="1354.2" y="556.8" textLength="12.2" clip-path="url(#terminal-2364587398-line-22)">╮</text><text class="terminal-2364587398-r1" x="1366.4" y="556.8" textLength="12.2" clip-path="url(#terminal-2364587398-line-22)">
</text><text class="terminal-2364587398-r26" x="0" y="581.2" textLength="12.2" clip-path="url(#terminal-2364587398-line-23)">│</text><text class="terminal-2364587398-r2" x="12.2" y="581.2" textLength="85.4" clip-path="url(#terminal-2364587398-line-23)">cycle:&#160;</text><text class="terminal-2364587398-r27" x="97.6" y="581.2" textLength="36.6" clip-path="url(#terminal-2364587398-line-23)">41.</text><text class="terminal-2364587398-r2" x="134.2" y="581.2" textLength="61" clip-path="url(#terminal-2364587398-line-23)">2s&#160;·&#160;</text><text class="terminal-2364587398-r27" x="195.2" y="581.2" textLength="12.2" clip-path="url(#terminal-2364587398-line-23)">3</text><text class="terminal-2364587398-r2" x="207.4" y="581.2" textLength="109.8" clip-path="url(#terminal-2364587398-line-23)">&#160;applied&#160;</text><text class="terminal-2364587398-r10" x="317.2" y="581.2" textLength="12.2" clip-path="url(#terminal-2364587398-line-23)">(</text><text class="terminal-2364587398-r2" x="329.4" y="581.2" textLength="12.2" clip-path="url(#terminal-2364587398-line-23)">+</text><text class="terminal-2364587398-r27" x="341.6" y="581.2" textLength="12.2" clip-path="url(#terminal-2364587398-line-23)">1</text><text class="terminal-2364587398-r10" x="353.8" y="581.2" textLength="12.2" clip-path="url(#terminal-2364587398-line-23)">)</text><text class="terminal-2364587398-r2" x="366" y="581.2" textLength="122" clip-path="url(#terminal-2364587398-line-23)">&#160;·&#160;spend&#160;$</text><text class="terminal-2364587398-r27" x="488" y="581.2" textLength="73.2" clip-path="url(#terminal-2364587398-line-23)">0.0041</text><text class="terminal-2364587398-r10" x="573.4" y="581.2" textLength="12.2" clip-path="url(#terminal-2364587398-line-23)">(</text><text class="terminal-2364587398-r2" x="585.6" y="581.2" textLength="12.2" clip-path="url(#terminal-2364587398-line-23)">+</text><text class="terminal-2364587398-r27" x="597.8" y="581.2" textLength="73.2" clip-path="url(#terminal-2364587398-line-23)">0.0004</text><text class="terminal-2364587398-r10" x="671" y="581.2" textLength="12.2" clip-path="url(#terminal-2364587398-line-23)">)</text><text class="terminal-2364587398-r26" x="1354.2" y="581.2" textLength="12.2" clip-path="url(#terminal-2364587398-line-23)">│</text><text class="terminal-2364587398-r1" x="1366.4" y="581.2" textLength="12.2" clip-path="url(#terminal-2364587398-line-23)">
</text><text class="terminal-2364587398-r26" x="0" y="605.6" textLength="12.2" clip-path="url(#terminal-2364587398-line-24)">│</text><text class="terminal-2364587398-r10" x="12.2" y="605.6" textLength="12.2" clip-path="url(#terminal-2364587398-line-24)">[</text><text class="terminal-2364587398-r2" x="24.4" y="605.6" textLength="122" clip-path="url(#terminal-2364587398-line-24)">Applicator</text><text class="terminal-2364587398-r10" x="146.4" y="605.6" textLength="12.2" clip-path="url(#terminal-2364587398-line-24)">]</text><text class="terminal-2364587398-r2" x="158.6" y="605.6" textLength="85.4" clip-path="url(#terminal-2364587398-line-24)">&#160;Found&#160;</text><text class="terminal-2364587398-r28" x="244" y="605.6" textLength="244" clip-path="url(#terminal-2364587398-line-24)">&#x27;Submit&#160;application&#x27;</text><text class="terminal-2364587398-r2" x="488" y="605.6" textLength="231.8" clip-path="url(#terminal-2364587398-line-24)">&#160;button.&#160;Submitting</text><text class="terminal-2364587398-r29" x="719.8" y="605.6" textLength="36.6" clip-path="url(#terminal-2364587398-line-24)">...</text><text class="terminal-2364587398-r26" x="1354.2" y="605.6" textLength="12.2" clip-path="url(#terminal-2364587398-line-24)">│</text><text class="terminal-2364587398-r1" x="1366.4" y="605.6" textLength="12.2" clip-path="url(#terminal-2364587398-line-24)">
</text><text class="terminal-2364587398-r26" x="0" y="630" textLength="12.2" clip-path="url(#terminal-2364587398-line-25)">│</text><text class="terminal-2364587398-r10" x="12.2" y="630" textLength="12.2" clip-path="url(#terminal-2364587398-line-25)">[</text><text class="terminal-2364587398-r2" x="24.4" y="630" textLength="122" clip-path="url(#terminal-2364587398-line-25)">Applicator</text><text class="terminal-2364587398-r10" x="146.4" y="630" textLength="12.2" clip-path="url(#terminal-2364587398-line-25)">]</text><text class="terminal-2364587398-r2" x="158.6" y="630" textLength="439.2" clip-path="url(#terminal-2364587398-line-25)">&#160;Application&#160;submitted&#160;successfully.</text><text class="terminal-2364587398-r26" x="1354.2" y="630" textLength="12.2" clip-path="url(#terminal-2364587398-line-25)">│</text><text class="terminal-2364587398-r1" x="1366.4" y="630" textLength="12.2" clip-path="url(#terminal-2364587398-line-25)">
</text><text class="terminal-2364587398-r26" x="0" y="654.4" textLength="12.2" clip-path="url(#terminal-2364587398-line-26)">│</text><text class="terminal-2364587398-r26" x="1354.2" y="654.4" textLength="12.2" clip-path="url(#terminal-2364587398-line-26)">│</text><text class="terminal-2364587398-r1" x="1366.4" y="654.4" textLength="12.2" clip-path="url(#terminal-2364587398-line-26)">
</text><text class="terminal-2364587398-r26" x="0" y="678.8" textLength="12.2" clip-path="url(#terminal-2364587398-line-27)">│</text><text class="terminal-2364587398-r26" x="1354.2" y="678.8" textLength="12.2" clip-path="url(#terminal-2364587398-line-27)">│</text><text class="terminal-2364587398-r1" x="1366.4" y="678.8" textLength="12.2" clip-path="url(#terminal-2364587398-line-27)">
</text><text class="terminal-2364587398-r26" x="0" y="703.2" textLength="12.2" clip-path="url(#terminal-2364587398-line-28)">│</text><text class="terminal-2364587398-r26" x="1354.2" y="703.2" textLength="12.2" clip-path="url(#terminal-2364587398-line-28)">│</text><text class="terminal-2364587398-r1" x="1366.4" y="703.2" textLength="12.2" clip-path="url(#terminal-2364587398-line-28)">
</text><text class="terminal-2364587398-r26" x="0" y="727.6" textLength="12.2" clip-path="url(#terminal-2364587398-line-29)">│</text><text class="terminal-2364587398-r26" x="1354.2" y="727.6" textLength="12.2" clip-path="url(#terminal-2364587398-line-29)">│</text><text class="terminal-2364587398-r1" x="1366.4" y="727.6" textLength="12.2" clip-path="url(#terminal-2364587398-line-29)">
</text><text class="terminal-2364587398-r26" x="0" y="752" textLength="12.2" clip-path="url(#terminal-2364587398-line-30)">│</text><text class="terminal-2364587398-r26" x="1354.2" y="752" textLength="12.2" clip-path="url(#terminal-2364587398-line-30)">│</text><text class="terminal-2364587398-r1" x="1366.4" y="752" textLength="12.2" clip-path="url(#terminal-2364587398-line-30)">
</text><text class="terminal-2364587398-r26" x="0" y="776.4" textLength="12.2" clip-path="url(#terminal-2364587398-line-31)">│</text><text class="terminal-2364587398-r26" x="1354.2" y="776.4" textLength="12.2" clip-path="url(#terminal-2364587398-line-31)">│</text><text class="terminal-2364587398-r1" x="1366.4" y="776.4" textLength="12.2" clip-path="url(#terminal-2364587398-line-31)">
</text><text class="terminal-2364587398-r26" x="0" y="800.8" textLength="12.2" clip-path="url(#terminal-2364587398-line-32)">╰</text><text class="terminal-2364587398-r26" x="12.2" y="800.8" textLength="1342" clip-path="url(#terminal-2364587398-line-32)">──────────────────────────────────────────────────────────────────────────────────────────────────────────────</text><text class="terminal-2364587398-r26" x="1354.2" y="800.8" textLength="12.2" clip-path="url(#terminal-2364587398-line-32)">╯</text><text class="terminal-2364587398-r1" x="1366.4" y="800.8" textLength="12.2" clip-path="url(#terminal-2364587398-line-32)">
</text><text class="terminal-2364587398-r30" x="0" y="825.2" textLength="36.6" clip-path="url(#terminal-2364587398-line-33)">&#160;1&#160;</text><text class="terminal-2364587398-r2" x="36.6" y="825.2" textLength="122" clip-path="url(#terminal-2364587398-line-33)">Dashboard&#160;</text><text class="terminal-2364587398-r30" x="158.6" y="825.2" textLength="36.6" clip-path="url(#terminal-2364587398-line-33)">&#160;2&#160;</text><text class="terminal-2364587398-r2" x="195.2" y="825.2" textLength="61" clip-path="url(#terminal-2364587398-line-33)">Jobs&#160;</text><text class="terminal-2364587398-r30" x="256.2" y="825.2" textLength="36.6" clip-path="url(#terminal-2364587398-line-33)">&#160;3&#160;</text><text class="terminal-2364587398-r2" x="292.8" y="825.2" textLength="109.8" clip-path="url(#terminal-2364587398-line-33)">LLM&#160;Logs&#160;</text><text class="terminal-2364587398-r30" x="402.6" y="825.2" textLength="36.6" clip-path="url(#terminal-2364587398-line-33)">&#160;4&#160;</text><text class="terminal-2364587398-r2" x="439.2" y="825.2" textLength="109.8" clip-path="url(#terminal-2364587398-line-33)">Settings&#160;</text><text class="terminal-2364587398-r30" x="549" y="825.2" textLength="36.6" clip-path="url(#terminal-2364587398-line-33)">&#160;5&#160;</text><text class="terminal-2364587398-r2" x="585.6" y="825.2" textLength="61" clip-path="url(#terminal-2364587398-line-33)">HITL&#160;</text><text class="terminal-2364587398-r31" x="1220" y="825.2" textLength="12.2" clip-path="url(#terminal-2364587398-line-33)">▏</text><text class="terminal-2364587398-r30" x="1232.2" y="825.2" textLength="24.4" clip-path="url(#terminal-2364587398-line-33)">^p</text><text class="terminal-2364587398-r2" x="1256.6" y="825.2" textLength="97.6" clip-path="url(#terminal-2364587398-line-33)">&#160;palette</text>
    </g>
    </g>
</svg>
